Coordinates
version=1
nRows=8
nColumns=46
inDegrees=yes

Units are S.I. units (second, meters, Newtons, ...)
Angles are in degrees.

endheader
time	pelvis_tilt	pelvis_list	pelvis_rotation	pelvis_tx	pelvis_ty	pelvis_tz	bb_angle	bb_tx	bb_ty	bb_tz	hip_flexion_r	hip_adduction_r	hip_rotation_r	knee_angle_r	knee_angle_r_beta	ankle_angle_r	subtalar_angle_r	mtp_angle_r	crank_angle_r	hip_flexion_l	hip_adduction_l	hip_rotation_l	knee_angle_l	knee_angle_l_beta	ankle_angle_l	subtalar_angle_l	mtp_angle_l	crank_angle_l	lumbar_extension	lumbar_bending	lumbar_rotation	arm_flex_r	arm_add_r	arm_rot_r	elbow_flex_r	pro_sup_r	wrist_flex_r	wrist_dev_r	arm_flex_l	arm_add_l	arm_rot_l	elbow_flex_l	pro_sup_l	wrist_flex_l	wrist_dev_l
      0.00500000	    -23.12216541	     -6.61571119	     -5.92896486	      0.10273465	      1.11133265	     -0.22461330	      0.00000000	      0.50000000	      0.00000000	      0.25000000	     90.74975002	      4.36790587	     -0.27737960	     95.48891677	      1.66659600	     25.73819085	     -6.41116386	      0.00000000	      0.00000000	     35.84035628	    -13.37918049	     -4.15902614	     21.73248523	      0.37930342	     10.83289856	      5.38236743	      0.00000000	      0.00000000	    -45.61992756	      4.04726190	      8.15757331	     89.60383616	     -4.67475255	     43.19243475	     32.58168390	     24.67616435	      0.00000000	      0.00000000	     89.68108748	     -8.82809627	     41.09525813	     27.46440415	     23.75583913	      0.00000000	      0.00000000
      0.01000000	    -23.09904953	     -6.60789401	     -5.94932589	      0.10272502	      1.11138471	     -0.22462434	      0.00000000	      0.50000000	      0.00000000	      0.25000000	     90.71657215	      4.35572640	     -0.25956497	     95.47312490	      1.66632038	     25.77257276	     -6.27251871	      0.00000000	      0.00000000	     35.80413194	    -13.40408848	     -4.23822553	     21.72982407	      0.37925698	     10.86035296	      5.55403367	      0.00000000	      0.00000000	    -45.64992997	      4.02826668	      8.16113363	     89.60689324	     -4.72630314	     43.10948757	     32.09356512	     27.73870528	      0.00000000	      0.00000000	     89.68251978	     -8.98699142	     41.40351693	     27.14081994	     26.31786258	      0.00000000	      0.00000000
      0.01500000	    -23.09707763	     -6.61495036	     -5.96753089	      0.10262033	      1.11137851	     -0.22461774	      0.00000000	      0.50000000	      0.00000000	      0.25000000	     90.72290803	      4.38073343	     -0.26052267	     95.47163439	      1.66629436	     25.76359742	     -6.28552711	      0.00000000	      0.00000000	     35.81232760	    -13.43251959	     -4.31008121	     21.74135909	      0.37945830	     10.86619060	      5.64296665	      0.00000000	      0.00000000	    -45.64499444	      4.01290938	      8.19666624	     89.60314862	     -4.71651902	     42.94534652	     32.09752361	     27.63161914	      0.00000000	      0.00000000	     89.68459766	     -8.90857656	     41.43414850	     27.09937562	     26.13507512	      0.00000000	      0.00000000
      0.02000000	    -22.79262418	     -6.41438628	     -5.86800434	      0.10303638	      1.11235604	     -0.22532688	      0.00000000	      0.50000000	      0.00000000	      0.25000000	     90.36191913	      4.25749381	     -0.09957124	     95.51234626	      1.66700492	     25.78428540	     -6.53501451	      0.00000000	      0.00000000	     35.10450452	    -13.17629916	     -4.51844536	     21.17579152	      0.36958728	     10.91361718	      5.51769071	      0.00000000	      0.00000000	    -45.97254451	      3.89027565	      7.97788378	     89.61570712	     -4.61555500	     42.86164033	     31.82312573	     28.18816345	      0.00000000	      0.00000000	     89.68676088	    -10.03074635	     43.29954243	     28.08167300	     26.87913807	      0.00000000	      0.00000000
      0.02500000	    -22.36134349	     -6.31506820	     -5.77383324	      0.10357255	      1.11354458	     -0.22588317	      0.00000000	      0.50000000	      0.00000000	      0.25000000	     89.84907685	      4.02377201	      0.01360099	     95.49526364	      1.66670677	     25.86683587	     -6.18941238	      0.00000000	      0.00000000	     33.73126094	    -12.63738220	     -4.17192057	     19.42211610	      0.33897987	     10.17023017	      4.99891056	      0.00000000	      0.00000000	    -46.54408347	      3.75796826	      8.02121265	     89.61849447	     -4.58123290	     41.81872624	     31.93108345	     28.75019080	      0.00000000	      0.00000000	     89.68129331	     -9.70935492	     42.61758712	     28.64972915	     27.55305450	      0.00000000	      0.00000000
      0.03000000	    -22.44060483	     -6.23528071	     -5.73328071	      0.10332920	      1.11335322	     -0.22592565	      0.00000000	      0.50000000	      0.00000000	      0.25000000	     89.97280894	      3.94443320	      0.10926885	     95.54304792	      1.66754076	     25.95946488	     -5.91060774	      0.00000000	      0.00000000	     33.85285950	    -12.37619944	     -3.33129509	     19.44436866	      0.33936825	      9.90441694	      3.63384165	      0.00000000	      0.00000000	    -46.35593380	      3.69492748	      7.91028800	     89.61492092	     -4.25492113	     41.32477634	     31.28492195	     29.12571027	      0.00000000	      0.00000000	     89.69104221	     -8.78225677	     41.64537576	     27.33689302	     27.66461346	      0.00000000	      0.00000000
      0.03500000	    -22.44365332	     -6.26082328	     -5.74030291	      0.10323654	      1.11347521	     -0.22578576	      0.00000000	      0.50000000	      0.00000000	      0.25000000	     89.96159509	      3.98733748	      0.09052033	     95.51510033	      1.66705299	     25.94597082	     -5.96553790	      0.00000000	      0.00000000	     33.69426667	    -12.29412756	     -2.70051205	     19.12968901	      0.33387606	      9.67070864	      2.89571336	      0.00000000	      0.00000000	    -46.36676327	      3.68673689	      7.95160425	     89.61443008	     -4.21792429	     41.06961564	     31.14374311	     29.61314819	      0.00000000	      0.00000000	     89.69049823	     -8.57115003	     40.97611321	     27.18971339	     28.00019788	      0.00000000	      0.00000000
      0.04000000	    -22.44438490	     -6.31073200	     -5.81394190	      0.10313483	      1.11349622	     -0.22548024	      0.00000000	      0.50000000	      0.00000000	      0.25000000	     89.95705768	      4.11422333	      0.05467023	     95.48811439	      1.66658199	     25.93108736	     -6.01317107	      0.00000000	      0.00000000	     33.60416608	    -12.34729268	     -2.45131607	     18.98551550	      0.33135976	      9.59577218	      2.60535444	      0.00000000	      0.00000000	    -46.38235929	      3.66927184	      8.06345496	     89.61098857	     -4.17475473	     40.82154825	     31.07815256	     30.04923508	      0.00000000	      0.00000000	     89.68670999	     -8.49962973	     40.56217961	     27.20379505	     28.37271220	      0.00000000	      0.00000000
